<svg width="102" height="24" viewBox="0 0 102 24" fill="none" xmlns="http://www.w3.org/2000/svg">
<rect width="24" height="24" rx="6" fill="white"/>
<path d="M10.3182 19.206C9.62216 19.206 9.00189 19.0852 8.45739 18.8438C7.91288 18.5975 7.48201 18.2353 7.16477 17.7571C6.85227 17.2741 6.69602 16.6728 6.69602 15.9531C6.69602 15.3471 6.80729 14.8381 7.02983 14.4261C7.25237 14.0142 7.5554 13.6828 7.93892 13.4318C8.32244 13.1809 8.75805 12.9915 9.24574 12.8636C9.73816 12.7358 10.2543 12.6458 10.794 12.5938C11.4285 12.5275 11.9399 12.4659 12.3281 12.4091C12.7164 12.3475 12.9981 12.2576 13.1733 12.1392C13.3485 12.0208 13.4361 11.8456 13.4361 11.6136V11.571C13.4361 11.1212 13.294 10.7732 13.0099 10.527C12.7306 10.2808 12.3329 10.1577 11.8168 10.1577C11.2723 10.1577 10.839 10.2784 10.517 10.5199C10.1951 10.7566 9.98201 11.0549 9.87784 11.4148L7.07955 11.1875C7.22159 10.5246 7.50095 9.9517 7.91761 9.46875C8.33428 8.98106 8.87169 8.60701 9.52983 8.34659C10.1927 8.08144 10.9598 7.94886 11.831 7.94886C12.437 7.94886 13.017 8.01989 13.571 8.16193C14.1297 8.30398 14.6245 8.52415 15.0554 8.82244C15.491 9.12074 15.8343 9.50426 16.0852 9.97301C16.3362 10.437 16.4616 10.9934 16.4616 11.642V19H13.5923V17.4872H13.5071C13.3319 17.8281 13.0975 18.1288 12.804 18.3892C12.5104 18.6449 12.1577 18.8461 11.7457 18.9929C11.3338 19.1349 10.858 19.206 10.3182 19.206ZM11.1847 17.1179C11.6297 17.1179 12.0227 17.0303 12.3636 16.8551C12.7045 16.6752 12.9721 16.4337 13.1662 16.1307C13.3603 15.8277 13.4574 15.4844 13.4574 15.1009V13.9432C13.3627 14.0047 13.2325 14.0616 13.0668 14.1136C12.9058 14.161 12.7235 14.206 12.5199 14.2486C12.3163 14.2865 12.1127 14.322 11.9091 14.3551C11.7055 14.3835 11.5208 14.4096 11.3551 14.4332C11 14.4853 10.6899 14.5682 10.4247 14.6818C10.1596 14.7955 9.9536 14.9493 9.80682 15.1435C9.66004 15.3329 9.58665 15.5696 9.58665 15.8537C9.58665 16.2656 9.7358 16.5805 10.0341 16.7983C10.3371 17.0114 10.7206 17.1179 11.1847 17.1179Z" fill="black"/>
<rect x="26" width="24" height="24" rx="6" fill="white"/>
<path d="M38.179 19.2131C37.0568 19.2131 36.0909 18.9858 35.2812 18.5312C34.4763 18.072 33.8561 17.4233 33.4205 16.5852C32.9848 15.7424 32.767 14.7457 32.767 13.5952C32.767 12.473 32.9848 11.4882 33.4205 10.6406C33.8561 9.79309 34.4692 9.13258 35.2599 8.65909C36.0554 8.18561 36.9882 7.94886 38.0582 7.94886C38.7779 7.94886 39.4479 8.06487 40.0682 8.29688C40.6932 8.52415 41.2377 8.86742 41.7017 9.3267C42.1705 9.78598 42.535 10.3636 42.7955 11.0597C43.0559 11.7509 43.1861 12.5606 43.1861 13.4886V14.3196H33.9744V12.4446H40.3381C40.3381 12.009 40.2434 11.6231 40.054 11.2869C39.8646 10.9508 39.6018 10.688 39.2656 10.4986C38.9342 10.3045 38.5483 10.2074 38.108 10.2074C37.6487 10.2074 37.2415 10.3139 36.8864 10.527C36.536 10.7353 36.2614 11.017 36.0625 11.3722C35.8636 11.7225 35.7618 12.1132 35.7571 12.544V14.3267C35.7571 14.8665 35.8565 15.3329 36.0554 15.7259C36.259 16.1188 36.5455 16.4219 36.9148 16.6349C37.2841 16.848 37.7221 16.9545 38.2287 16.9545C38.5649 16.9545 38.8726 16.9072 39.152 16.8125C39.4313 16.7178 39.6705 16.5758 39.8693 16.3864C40.0682 16.197 40.2197 15.965 40.3239 15.6903L43.1222 15.875C42.9801 16.5473 42.6889 17.1345 42.2486 17.6364C41.813 18.1335 41.2495 18.5218 40.5582 18.8011C39.8717 19.0758 39.0786 19.2131 38.179 19.2131ZM36.9006 6.68466L38.4062 3.45312H41.2045L39.0384 6.68466H36.9006Z" fill="black"/>
<rect x="52" width="24" height="24" rx="6" fill="white"/>
<path d="M59.1506 19V17.196L64.4915 10.5838V10.5057H59.3352V8.09091H68.1349V10.0582L63.1207 16.5071V16.5852H68.3196V19H59.1506Z" fill="black"/>
<rect x="78" width="24" height="24" rx="6" fill="white"/>
<path d="M88.3182 19.206C87.6222 19.206 87.0019 19.0852 86.4574 18.8438C85.9129 18.5975 85.482 18.2353 85.1648 17.7571C84.8523 17.2741 84.696 16.6728 84.696 15.9531C84.696 15.3471 84.8073 14.8381 85.0298 14.4261C85.2524 14.0142 85.5554 13.6828 85.9389 13.4318C86.3224 13.1809 86.758 12.9915 87.2457 12.8636C87.7382 12.7358 88.2543 12.6458 88.794 12.5938C89.4285 12.5275 89.9399 12.4659 90.3281 12.4091C90.7164 12.3475 90.9981 12.2576 91.1733 12.1392C91.3485 12.0208 91.4361 11.8456 91.4361 11.6136V11.571C91.4361 11.1212 91.294 10.7732 91.0099 10.527C90.7306 10.2808 90.3329 10.1577 89.8168 10.1577C89.2723 10.1577 88.839 10.2784 88.517 10.5199C88.1951 10.7566 87.982 11.0549 87.8778 11.4148L85.0795 11.1875C85.2216 10.5246 85.5009 9.9517 85.9176 9.46875C86.3343 8.98106 86.8717 8.60701 87.5298 8.34659C88.1927 8.08144 88.9598 7.94886 89.831 7.94886C90.437 7.94886 91.017 8.01989 91.571 8.16193C92.1297 8.30398 92.6245 8.52415 93.0554 8.82244C93.491 9.12074 93.8343 9.50426 94.0852 9.97301C94.3362 10.437 94.4616 10.9934 94.4616 11.642V19H91.5923V17.4872H91.5071C91.3319 17.8281 91.0975 18.1288 90.804 18.3892C90.5104 18.6449 90.1577 18.8461 89.7457 18.9929C89.3338 19.1349 88.858 19.206 88.3182 19.206ZM89.1847 17.1179C89.6297 17.1179 90.0227 17.0303 90.3636 16.8551C90.7045 16.6752 90.9721 16.4337 91.1662 16.1307C91.3603 15.8277 91.4574 15.4844 91.4574 15.1009V13.9432C91.3627 14.0047 91.2325 14.0616 91.0668 14.1136C90.9058 14.161 90.7235 14.206 90.5199 14.2486C90.3163 14.2865 90.1127 14.322 89.9091 14.3551C89.7055 14.3835 89.5208 14.4096 89.3551 14.4332C89 14.4853 88.6899 14.5682 88.4247 14.6818C88.1596 14.7955 87.9536 14.9493 87.8068 15.1435C87.66 15.3329 87.5866 15.5696 87.5866 15.8537C87.5866 16.2656 87.7358 16.5805 88.0341 16.7983C88.3371 17.0114 88.7206 17.1179 89.1847 17.1179Z" fill="black"/>
</svg>
