<svg width="831" height="74" viewBox="0 0 831 74" fill="none" xmlns="http://www.w3.org/2000/svg">
<path d="M697.3 74C815.99 74 815.99 74 815.99 74C824.15 74 830.826 67.34 830.826 59.2C830.826 14.8 830.826 14.8 830.826 14.8C830.826 6.66 824.15 0 815.99 0C697.3 0 697.3 0 697.3 0C689.14 0 682.464 6.66 682.464 14.8C682.464 59.2 682.464 59.2 682.464 59.2C682.464 67.34 689.14 74 697.3 74ZM808.572 59.2C704.718 59.2 704.718 59.2 704.718 59.2C700.564 59.2 697.3 55.796 697.3 51.8C697.3 22.2 697.3 22.2 697.3 22.2C697.3 18.056 700.713 14.8 704.718 14.8C808.572 14.8 808.572 14.8 808.572 14.8C812.726 14.8 815.99 18.204 815.99 22.2C815.99 51.8 815.99 51.8 815.99 51.8C815.99 55.944 812.726 59.2 808.572 59.2Z" fill="#B9190E"/>
<path d="M370.904 74H504.43V59.2H370.904V44.4H489.594V29.6H370.904V14.8H504.43V0H370.904H356.068V74H370.904Z" fill="#B9190E"/>
<path d="M267.051 44.4L326.396 14.8V74H341.232V0H326.396L267.051 29.6L207.706 0H192.87V74H207.706V14.8L267.051 44.4Z" fill="#B9190E"/>
<path d="M178.034 74V0H163.198V74H178.034Z" fill="#B9190E"/>
<path d="M133.526 0C0 0 0 0 0 0C0 74 0 74 0 74C133.526 74 133.526 74 133.526 74C141.685 74 148.362 67.34 148.362 59.2C148.362 14.8 148.362 14.8 148.362 14.8C148.362 6.66 141.685 0 133.526 0ZM14.8362 59.2C14.8362 14.8 14.8362 14.8 14.8362 14.8C126.107 14.8 126.107 14.8 126.107 14.8C130.262 14.8 133.526 18.204 133.526 22.2C133.526 51.8 133.526 51.8 133.526 51.8C133.526 55.944 130.113 59.2 126.107 59.2H14.8362Z" fill="#B9190E"/>
<path d="M541.52 59.2C537.366 59.2 534.102 55.796 534.102 51.8C534.102 22.2 534.102 22.2 534.102 22.2C534.102 18.056 537.515 14.8 541.52 14.8C667.628 14.8 667.628 14.8 667.628 14.8C667.628 6.66 660.952 0 652.792 0C534.102 0 534.102 0 534.102 0C525.942 0 519.266 6.66 519.266 14.8C519.266 59.2 519.266 59.2 519.266 59.2C519.266 67.34 525.942 74 534.102 74C652.792 74 652.792 74 652.792 74C660.952 74 667.628 67.34 667.628 59.2H541.52Z" fill="#B9190E"/>
</svg>
