<?xml version="1.0" encoding="UTF-8"?>
<!DOCTYPE svg PUBLIC "-//W3C//DTD SVG 1.1//EN" "http://www.w3.org/Graphics/SVG/1.1/DTD/svg11.dtd">
<!-- Creator: CorelDRAW 2021.5 -->
<svg xmlns="http://www.w3.org/2000/svg" xml:space="preserve" width="297mm" height="210mm" version="1.1" style="shape-rendering:geometricPrecision; text-rendering:geometricPrecision; image-rendering:optimizeQuality; fill-rule:evenodd; clip-rule:evenodd"
viewBox="0 0 29700 21000"
 xmlns:xlink="http://www.w3.org/1999/xlink"
 xmlns:xodm="http://www.corel.com/coreldraw/odm/2003">
 <defs>
  <style type="text/css">
   <![CDATA[
    .fil1 {fill:#2850C8;fill-rule:nonzero}
    .fil0 {fill:#FC0000;fill-rule:nonzero}
   ]]>
  </style>
 </defs>
 <g id="Слой_x0020_1">
  <metadata id="CorelCorpID_0Corel-Layer"/>
  <g id="_2704579992016">
   <path class="fil0" d="M3533.08 10796.36c0.31,-0.49 0.62,-0.99 0.92,-1.45l-0.92 1.45z"/>
   <path class="fil0" d="M6576.37 8775.15c-186.73,11.8 -442.15,60.04 -590.46,155.49 -175.92,113.23 -343.27,305.35 -525.2,611.35 -110.58,197.03 -156.32,279.38 -202.43,362.31 -254.3,457.41 -409.61,736.78 -671.34,1118.43 -193.39,284.13 -396.85,505.98 -624.14,659.5 -234.26,158.26 -491.5,243.49 -785.59,249.15l-3.67 0 -1558.96 0.08 -2.95 -276.35 893.41 -2.57c536.77,-22.86 817.88,-501.99 961.78,-747.28 25.01,-42.63 46.54,-79.1 65.31,-107.4 134.25,-228.29 225.83,-398.35 309.1,-553.05 115.25,-214.12 214.95,-399.16 405.82,-695.54l-1.08 1.07c187.92,-300.02 411.3,-523.44 628.32,-684.43 38.88,-28.84 100.09,-66.7 138.51,-91.63l-0.01 0 -2791.19 -1.37c-97.14,11.8 -178.26,59.87 -235.79,142.49 -64.62,92.84 -103.27,229.51 -107.83,408.76l0 1814.05 -270.26 0 0 -1820.4c5.98,-234.38 62.05,-421.03 156.39,-556.54 106.6,-153.1 258.7,-239.97 441.82,-257.55l12.68 -1.07 4452.73 2.38 0.54 0 525.7 2.87 11.07 0c172.97,15.2 331.62,102.92 445.42,253.02 99.24,130.85 163.36,303.21 169.87,520.88l6.06 21.91 -3.26 1798.81 0 -3.68c13.29,468.06 -239.35,840.32 -592.08,850.32l-0.5 0c-9.04,0.23 -18.31,0.23 -27.54,0l3.18 0 -2291.23 -6.44 0 -270.26 2291.23 6.43 3.18 0c4.94,0.12 9.99,0.12 14.82,0l-0.5 0c197.68,-5.59 338.14,-256.36 329.18,-572.7l0 -3.67 -2.8 -1810.95 0 3.68c-4.71,-157.43 -48.07,-282.52 -114.95,-370.7 -66.03,-87.1 -156.23,-137.89 -253.29,-146.39l11.07 0 -525.17 -2.87 -0.54 0 -94.49 -0.04 0.06 -0.1z"/>
   <path class="fil1" d="M9580.58 10455.3l-238.92 0 -214.14 1081.09c-28.08,141.8 -80.21,246.8 -156.24,314.15 -76.01,67.39 -164.96,101.07 -265.99,101.07 -108.12,0 -185.75,-35.24 -231.3,-105.75 -45.62,-70.51 -55.04,-173.13 -28.05,-309.47l512.86 -2589.16c29.03,-146.51 83.02,-253.03 161.9,-318.86 78.82,-65.8 191.89,-98.69 338.37,-98.69l1108.52 0c152.79,0 282.34,6.27 388.63,19.57 106.39,12.54 199.08,39.17 278.13,79.12 96.89,44.66 177.54,108.12 242.73,190.39 64.26,83.03 107.2,178.6 127.01,288.28 20.72,108.89 18.92,224.85 -5.46,347.86 -49.65,250.69 -159.88,451.23 -331.31,600.86 -171.61,150.41 -407.21,256.19 -707.12,318.86 107.88,64.23 204.91,159.81 290.55,285.15 84.85,125.35 157.19,258.53 215.25,400.33 58.1,141.79 100.18,269.48 126.23,383.1 25.16,114.36 33.91,192.7 25.54,234.99 -8.85,44.66 -31.61,88.55 -68.51,132.4 -36.76,43.11 -81.94,77.56 -136.44,103.41 -54.33,25.09 -113.2,37.61 -177.44,37.61 -76,0 -137.45,-18.01 -182.02,-54.06 -44.59,-36.02 -80.2,-81.47 -106.96,-136.3 -26.76,-54.84 -61.52,-136.31 -104.49,-243.65l-183.41 -454.38c-64.91,-166.86 -127.52,-293.77 -187.07,-380.72 -60.3,-86.96 -126.84,-146.51 -200.4,-178.63 -72.78,-32.12 -169.78,-48.57 -290.45,-48.57zm670.25 -1414.06l-629.08 0 -183.27 925.22 610.26 0c163.74,0 304.45,-14.11 422.06,-42.32 116.8,-28.19 211.83,-76.75 284.1,-144.92 72.24,-68.17 120.5,-161.4 144.24,-281.25 18.45,-93.23 11.26,-175.48 -22.42,-246.76 -32.89,-71.29 -88.17,-124.57 -165.77,-159.84 -72.44,-33.68 -225.87,-50.13 -460.12,-50.13zm3307.88 1790.11l-1225.26 0c-26.69,142.57 -22.52,267.92 11.53,376.82 34.05,108.9 92.32,190.36 173.91,245.2 81.43,55.62 178.63,83.02 289.87,83.02 75.22,0 145.05,-8.61 210.54,-26.62 65.29,-17.23 131.05,-44.67 196.47,-82.24 66.2,-37.61 127.38,-77.56 184.49,-120.67 57.89,-43.07 132.84,-101.06 225.77,-174.69 37.54,-27.41 85.77,-41.51 145.29,-41.51 64.23,0 113.17,18 146.14,53.28 32.18,35.23 42.8,84.58 30.08,148.81 -11.16,56.44 -47.07,123.01 -106.02,199.01 -59.52,75.19 -140.57,148.07 -244.45,217.77 -103.14,69.72 -226.65,127.72 -371.16,173.16 -144.68,46.19 -305.1,68.92 -480.6,68.92 -402.67,0 -693.38,-114.36 -871.16,-343.9 -177.85,-229.56 -228.11,-541.34 -150.21,-934.61 36.63,-184.9 98.22,-357.25 185.17,-515.5 86.18,-158.24 193.72,-293.76 321.17,-407.38 128.13,-112.8 275.39,-199.75 442.45,-260.09 166.32,-60.33 343.93,-90.85 531.91,-90.85 245.24,0 444.93,51.68 599.17,155.09 154.99,103.4 259.44,236.58 314.76,400.32 54.53,163.74 65.32,330.6 31.64,500.61 -31.17,157.47 -96.76,259.31 -196.19,306.32 -99.24,46.22 -231.61,69.73 -395.31,69.73zm-1154.82 -355.66l1135.93 0c27.5,-213.9 1.32,-374.49 -78,-480.27 -79.19,-106.52 -200.2,-159.8 -363.94,-159.8 -156.68,0 -295.09,54.06 -416.64,161.4 -121.68,108.08 -214.47,267.92 -277.35,478.67zm3631.25 1122.6c-175.3,117.51 -339.31,206.06 -491.96,264.8 -153.43,58.74 -318.36,88.52 -493.86,88.52 -161.37,0 -296.01,-32.12 -404.91,-95.57 -108.83,-63.46 -185.92,-148.85 -230.18,-257.75 -44.22,-108.9 -53.85,-226.38 -28.72,-353.32 33.98,-171.54 116.9,-317.27 249.85,-438.69 132.81,-120.66 297.77,-202.13 496.23,-242.86 41.04,-9.43 143.77,-29.77 308.35,-61.89 163.98,-32.9 304.52,-61.9 422.58,-88.52 117.48,-27.43 246.04,-59.55 385.23,-97.94 24.93,-165.3 16.07,-286.72 -27.47,-363.5 -44.19,-77.56 -157.97,-115.95 -343.66,-115.95 -159.02,0 -283.25,21.94 -372,66.61 -89.54,44.63 -171.54,110.46 -246.39,199.75 -74.71,88.52 -127.08,147.29 -156.18,175.48 -29.88,28.21 -83.6,42.32 -161.16,42.32 -70.51,0 -127.08,-22.72 -169.03,-68.17 -42.87,-44.66 -56.47,-102.62 -42.49,-173.13 21.74,-109.68 81.39,-217.02 180.35,-321.2 99,-104.19 237.34,-189.58 416,-256.97 178.63,-67.36 390.56,-101.03 637.32,-101.03 275.76,0 485.48,32.89 630.06,97.91 144.61,65.01 235.5,167.64 272.6,308.65 37.21,140.24 33.07,327.48 -13.02,560.17 -29.03,146.47 -54.64,271.82 -75.63,373.67 -21.09,102.62 -44.53,217.01 -70.91,342.36 -23.3,117.51 -28.05,240.49 -14.18,368.18 13.87,127.72 16.38,209.96 9.09,246.79 -12.72,64.24 -54.13,123.01 -124.87,175.47 -70.68,52.5 -144.92,79.13 -220.92,79.13 -64.24,0 -121.62,-30.56 -172.35,-90.86 -51.52,-60.33 -100.09,-147.29 -147.77,-262.46zm137.96 -906.4c-98.28,33.68 -239.23,68.95 -421.42,106.56 -182.9,37.58 -309.77,65.01 -380.72,83.02 -70.75,17.23 -141.86,51.72 -213.19,103.41 -71.18,50.94 -115.88,122.22 -134.03,213.86 -18.92,95.61 1.16,176.29 60.03,242.86 58.88,66.61 146.38,99.51 262.33,99.51 123.75,0 243.57,-27.41 359.22,-81.47 115.72,-54.06 206.44,-124.56 272.74,-209.96 75.16,-94.79 134.24,-250.7 177.37,-468.49l17.67 -89.3zm1076.24 878.99l538.29 -2717.66c24.83,-125.35 71.83,-220.14 140.17,-284.37 68.34,-64.24 149.9,-96.35 245.51,-96.35 94.79,0 164.38,32.11 210.61,95.57 45.37,63.45 55.62,158.24 30.45,285.15l-538.29 2717.66c-25.16,126.91 -73.69,221.7 -145.02,285.16 -71.32,63.45 -153.7,95.57 -246.89,95.57 -92.45,0 -160.38,-32.9 -204.54,-98.69 -44.12,-65.83 -54.5,-159.84 -30.29,-282.04zm2517.13 -2685.54l-485.11 2448.96 1381.91 0c109.68,0 189.04,26.62 237.1,80.68 48.97,53.28 64.64,120.63 48.63,201.35 -16.45,83.02 -58.64,149.63 -126.84,201.31 -68.07,50.94 -158.55,76.79 -269.82,76.79l-1645.94 0c-148.07,0 -248.86,-32.9 -300.85,-98.73 -51.99,-65.79 -63.02,-172.32 -33.99,-318.83l513.33 -2591.53c27.13,-137.08 78.96,-240.49 154.52,-309.44 75.56,-68.95 163.84,-103.4 264.9,-103.4 101.85,0 178.19,33.67 228.18,101.84 49.96,68.14 61.45,172.35 33.98,311zm3174.42 2712.95c-175.3,117.51 -339.31,206.06 -491.96,264.8 -153.43,58.74 -318.35,88.52 -493.86,88.52 -161.36,0 -296,-32.12 -404.9,-95.57 -108.84,-63.46 -185.92,-148.85 -230.18,-257.75 -44.23,-108.9 -53.86,-226.38 -28.73,-353.32 33.99,-171.54 116.91,-317.27 249.85,-438.69 132.81,-120.66 297.77,-202.13 496.24,-242.86 41.03,-9.43 143.76,-29.77 308.35,-61.89 163.97,-32.9 304.51,-61.9 422.57,-88.52 117.48,-27.43 246.05,-59.55 385.23,-97.94 24.93,-165.3 16.08,-286.72 -27.47,-363.5 -44.19,-77.56 -157.97,-115.95 -343.65,-115.95 -159.03,0 -283.25,21.94 -372.01,66.61 -89.53,44.63 -171.54,110.46 -246.39,199.75 -74.71,88.52 -127.07,147.29 -156.17,175.48 -29.88,28.21 -83.6,42.32 -161.16,42.32 -70.51,0 -127.08,-22.72 -169.03,-68.17 -42.87,-44.66 -56.47,-102.62 -42.5,-173.13 21.74,-109.68 81.4,-217.02 180.36,-321.2 98.99,-104.19 237.33,-189.58 415.99,-256.97 178.63,-67.36 390.56,-101.03 637.32,-101.03 275.76,0 485.49,32.89 630.06,97.91 144.62,65.01 235.51,167.64 272.61,308.65 37.2,140.24 33.06,327.48 -13.02,560.17 -29.04,146.47 -54.64,271.82 -75.63,373.67 -21.1,102.62 -44.53,217.01 -70.92,342.36 -23.3,117.51 -28.05,240.49 -14.18,368.18 13.88,127.72 16.39,209.96 9.09,246.79 -12.71,64.24 -54.12,123.01 -124.87,175.47 -70.68,52.5 -144.92,79.13 -220.92,79.13 -64.23,0 -121.61,-30.56 -172.35,-90.86 -51.52,-60.33 -100.08,-147.29 -147.77,-262.46zm137.97 -906.4c-98.29,33.68 -239.23,68.95 -421.42,106.56 -182.9,37.58 -309.78,65.01 -380.73,83.02 -70.74,17.23 -141.86,51.72 -213.18,103.41 -71.19,50.94 -115.89,122.22 -134.03,213.86 -18.93,95.61 1.15,176.29 60.03,242.86 58.87,66.61 146.37,99.51 262.33,99.51 123.75,0 243.57,-27.41 359.22,-81.47 115.71,-54.06 206.43,-124.56 272.74,-209.96 75.15,-94.79 134.23,-250.7 177.37,-468.49l17.67 -89.3zm2135.32 -1861.39l-189.62 957.33c141.87,-123 280.98,-216.23 416.06,-281.25 135.09,-65.01 293.57,-97.91 473.75,-97.91 208.41,0 381.17,49.35 518.28,148.07 137.93,98.69 231,242.05 280.04,429.29 49.92,187.24 48.9,409.72 -2.01,666.69 -37.54,189.58 -96.28,363.49 -175.4,521.74 -79.9,158.28 -176.97,296.14 -291.6,412.09 -115.58,116.74 -244.49,206.03 -387.88,269.49 -143.39,63.45 -293.9,95.57 -451.36,95.57 -96.39,0 -184.9,-11.74 -265.82,-34.46 -80.11,-22.72 -146.14,-53.28 -199.01,-90.89 -52.23,-36.8 -95.4,-75.97 -129.79,-115.92 -33.75,-39.17 -77.6,-98.73 -130.71,-178.63l-12.24 61.9c-23.27,117.51 -69.19,206.81 -137.53,267.14 -69.11,60.3 -147.25,90.86 -234.24,90.86 -88.52,0 -153.74,-30.56 -194.3,-90.86 -40.53,-60.33 -49.48,-149.63 -26.21,-267.14l541.88 -2735.68c25.13,-126.9 70.1,-223.29 133.89,-288.3 64.58,-65.02 142.24,-97.13 233.88,-97.13 96.38,0 164.58,31.33 204.03,93.23 40.22,61.86 48.56,150.41 25.91,264.77zm-338.94 1861.39c-49.35,249.14 -30.19,441.06 56.87,575.02 87.87,133.96 224.31,200.57 409.18,200.57 158.24,0 307.3,-68.17 448.79,-205.25 140.78,-137.12 236.75,-332.97 287.49,-589.13 32.76,-165.3 37.34,-307.09 13.13,-426.2 -23.27,-119.85 -72.34,-212.31 -147.19,-277.32 -74.07,-65.01 -169.58,-97.13 -286.31,-97.13 -119.07,0 -231.94,32.12 -338.06,97.13 -106.12,65.01 -198.5,159.81 -276.16,282.81 -78.41,123.01 -134.07,269.49 -167.74,439.5zm2587.26 -255.38l144.1 -1099.13c29.03,-213.9 52.43,-367.43 70.88,-460.66 25.3,-127.68 77.73,-226.41 158.45,-297.7 80.72,-71.29 175.44,-106.52 284.34,-106.52 131.59,0 210.37,45.41 236.99,136.3 26.66,90.89 22.56,222.48 -11.46,394.05 -20.01,101.07 -45.68,202.91 -77.26,307.1l-322.79 1131.24c-36.87,134.75 -80.08,238.15 -129.62,310.25 -49.38,71.29 -115.28,107.31 -195.96,107.31 -83.02,0 -133.42,-34.46 -151.74,-104.19 -18.28,-69.72 -20.07,-175.47 -5.93,-318.05zm-44.56 1510.42c-93.23,0 -168.63,-30.56 -226.42,-90.89 -57.75,-60.34 -75.46,-144.92 -54.06,-253.04 18.93,-95.57 67.83,-176.29 147.6,-242.86 79.77,-66.57 167.77,-99.51 264.9,-99.51 96.39,0 172.09,32.94 227.1,99.51 54.94,66.57 72.64,147.29 53.72,242.86 -21.1,106.53 -72.34,191.14 -153.36,252.26 -81.06,61.11 -167.03,91.67 -259.48,91.67z"/>
  </g>
 </g>
</svg>
