<svg width="653" height="108" viewBox="0 0 653 108" fill="none" xmlns="http://www.w3.org/2000/svg">
<path d="M95 28V81L48 108L95 28ZM0 81V28L47 108L0 81ZM21 39H56V27H1L47.5 0L84 22L47.5 84L21 39Z" fill="url(#paint0_linear_1_22)"/>
<path d="M126.716 27.7975H119V80.9666H163.167V73.2571H126.716V27.7975Z" fill="#2A2D33"/>
<path d="M197.49 56.7747L219.84 38.4314L218.776 36.5704C215.051 30.7218 208.133 27.7975 198.289 27.7975C189.774 27.7975 183.389 29.9243 179.664 34.4437C175.939 38.963 173.81 45.3433 173.81 54.3821C173.81 63.4208 175.673 70.0669 179.398 74.3205C183.123 78.574 189.508 80.9666 198.022 80.9666C206.537 80.9666 212.922 78.8398 216.647 74.5863L218.51 72.7254L212.39 67.9402L210.794 69.8011C208.665 72.4595 204.142 73.7888 198.022 73.7888C195.628 73.7888 193.233 73.5229 190.839 72.9912C188.976 72.4595 187.38 71.662 186.049 70.3328C184.453 68.7377 183.389 66.8768 182.857 64.75C182.058 61.294 181.526 57.8381 181.792 54.3821C181.792 50.9261 182.058 47.4701 182.857 44.0141C183.389 41.8873 184.453 40.0264 186.049 38.4314C187.38 37.1021 188.976 36.3046 190.839 35.7729C193.233 35.2412 195.628 34.9754 198.022 34.9754C201.747 34.7095 205.472 35.5071 208.931 37.1021L184.985 56.5088L197.49 56.7747Z" fill="#2A2D33"/>
<path d="M257.888 66.8768L238.997 27.7975H230.483L257.888 80.9666L285.293 27.7975H276.779L257.888 66.8768Z" fill="#2A2D33"/>
<path d="M309.238 27.7975H301.256V80.9666H309.238V27.7975Z" fill="#2A2D33"/>
<path d="M602.446 27.7975H594.464V80.9666H602.446V27.7975Z" fill="#2A2D33"/>
<path d="M352.078 27.7964C343.563 27.7964 337.178 29.9232 333.453 34.4426C329.728 38.9619 327.865 45.3422 327.865 54.381C327.865 63.4197 329.728 70.0658 333.453 74.3194C337.178 78.5729 343.563 80.9655 352.078 80.9655C360.592 80.9655 366.977 78.8387 370.702 74.3194C374.427 69.8 376.29 63.4197 376.29 54.381C376.29 45.3422 374.427 38.6961 370.702 34.1767C366.977 29.6574 360.592 27.7964 352.078 27.7964ZM367.243 64.7489C366.711 66.8757 365.647 68.7366 364.051 70.3317C362.72 71.6609 361.124 72.4584 359.261 72.9901C354.472 74.0535 349.683 74.0535 344.894 72.9901C340.903 71.9268 337.71 69.0025 336.912 65.0148C336.113 61.5588 335.581 58.1028 335.581 54.6468C335.581 51.1908 335.847 47.7348 336.912 44.2789C337.444 42.1521 338.508 40.2912 340.104 38.6961C341.435 37.3669 343.031 36.5693 344.894 36.0377C349.683 34.9743 354.472 34.9743 359.261 36.0377C361.124 36.5693 362.72 37.3669 364.051 38.6961C365.647 40.2912 366.711 42.1521 367.243 44.2789C368.042 47.7348 368.574 51.1908 368.574 54.6468C368.574 57.837 368.042 61.2929 367.243 64.7489Z" fill="#2A2D33"/>
<path d="M476.065 51.4578L465.688 48.7993C462.762 48.2676 460.101 47.2042 457.706 45.6092C456.11 44.8116 455.312 43.2166 455.312 41.6215C455.312 38.1655 456.642 34.1778 467.285 34.1778C473.138 34.1778 477.395 35.2412 479.79 37.368L481.653 38.963L486.974 33.912L485.111 32.0511C481.386 28.5951 475.267 27 467.019 27C462.496 27 457.706 28.0634 453.715 30.456C449.724 32.8486 447.33 37.1021 447.596 41.8873C447.596 45.6092 449.192 49.0652 452.119 51.1919C455.046 53.3187 458.238 54.9138 461.697 55.7113C465.156 56.5088 468.615 57.3064 472.074 58.3697C474.735 58.9014 477.395 60.2307 479.79 61.8257C481.386 62.6233 482.451 64.4842 482.451 66.3451C482.451 66.8768 482.451 68.7377 478.992 71.1303C475.267 72.9912 471.01 73.7888 466.753 73.5229C460.633 73.5229 456.376 72.4595 453.715 70.3328L451.853 69.0035L446.531 74.0546L448.394 75.9155C450.789 77.7764 453.715 79.1057 456.642 79.6374C460.101 80.4349 463.56 80.9666 467.019 80.9666C472.872 81.2324 478.726 79.9032 483.781 77.2447C487.772 75.118 490.167 70.8645 490.167 66.3451C490.167 62.6233 488.57 59.1673 485.644 56.7747C482.717 54.1162 479.524 52.5211 476.065 51.4578Z" fill="#2A2D33"/>
<path d="M419.126 51.4579L408.75 48.7994C405.823 48.2677 403.162 47.2044 400.768 45.6093C399.171 44.8118 398.373 43.2167 398.373 41.6216C398.373 38.1656 399.703 34.1779 410.346 34.1779C416.2 34.1779 420.457 35.2413 422.851 37.3681L424.714 38.9632L430.035 33.9121L428.173 32.0512C424.448 28.5952 418.328 27.0001 410.08 27.0001C405.557 27.0001 400.768 28.0635 396.776 30.4561C392.785 32.8487 390.391 37.1022 390.657 41.8875C390.657 45.6093 392.253 49.0653 395.18 51.192C398.107 53.3188 401.3 54.9139 404.759 55.7114C408.217 56.5089 411.676 57.3065 415.135 58.3699C417.796 58.9016 420.457 60.2308 422.851 61.8259C424.448 62.6234 425.512 64.4843 425.512 66.3452C425.512 66.8769 425.512 68.7378 422.053 71.1304C418.328 72.9914 414.071 73.7889 409.814 73.523C403.694 73.523 399.437 72.4597 396.776 70.3329L394.914 69.0037L389.593 74.0547L391.455 75.9156C393.85 77.7766 396.777 79.1058 399.703 79.6375C403.162 80.435 406.621 80.9667 410.08 80.9667C415.933 81.2326 421.787 79.9033 426.842 77.2449C430.833 75.1181 433.228 70.8646 433.228 66.3452C433.228 62.6234 431.631 59.1674 428.705 56.7748C425.778 54.1163 422.585 52.5213 419.126 51.4579Z" fill="#2A2D33"/>
<path d="M525.021 80.9666H562.536L531.672 27.7975L500.808 80.9666H510.121L531.672 41.0898L549.233 73.2571H525.021V80.9666Z" fill="#2A2D33"/>
<path d="M613.09 34.4437V27.7975H653V34.4437H637.036V80.9666H629.054V34.4437H613.09Z" fill="#2A2D33"/>
<defs>
<linearGradient id="paint0_linear_1_22" x1="68" y1="11.5" x2="14" y2="97.5" gradientUnits="userSpaceOnUse">
<stop stop-color="#00B993"/>
<stop offset="1" stop-color="#0064AB"/>
</linearGradient>
</defs>
</svg>
